<svg width="20" height="19" viewBox="0 0 20 19" fill="none" xmlns="http://www.w3.org/2000/svg">
<path d="M12.6703 18.9984H12.6103C12.3902 18.9851 12.1807 18.8994 12.0143 18.7548C11.8479 18.6101 11.734 18.4145 11.6903 18.1984L10.0003 9.99835L1.80032 8.30835C1.58379 8.26535 1.38757 8.1519 1.24227 7.9857C1.09697 7.81951 1.01074 7.6099 0.997045 7.38956C0.983346 7.16923 1.04294 6.95056 1.16654 6.76764C1.29013 6.58472 1.47078 6.44785 1.68032 6.37835L17.6803 1.04835C17.8599 0.974194 18.0572 0.953965 18.2481 0.990138C18.439 1.02631 18.6153 1.11732 18.7553 1.25203C18.8953 1.38675 18.9931 1.55934 19.0366 1.74871C19.0801 1.93808 19.0675 2.13603 19.0003 2.31835L13.6703 18.3183C13.6007 18.5253 13.4653 18.7038 13.2847 18.8266C13.1042 18.9494 12.8884 19.0097 12.6703 18.9984ZM5.87032 7.09835L11.0603 8.15835C11.2543 8.19577 11.4329 8.28983 11.5735 8.42865C11.7141 8.56747 11.8104 8.74484 11.8503 8.93835L12.9003 14.1284L11.0603 8.93835L5.87032 7.09835Z" fill="#1087D1"/>
</svg>
